HIERARCHY
ROOT hip
{
	OFFSET 0.000000 0.000000 0.000000
	CHANNELS 6 Xposition Yposition Zposition Xrotation Zrotation Yrotation 
	JOINT abdomen
	{
		OFFSET 0.000000 3.422050 0.000000
		CHANNELS 3 Xrotation Zrotation Yrotation 
		JOINT chest
		{
			OFFSET 0.000000 8.486693 -0.684411
			CHANNELS 3 Xrotation Zrotation Yrotation 
			JOINT neck
			{
				OFFSET 0.000000 10.266162 -0.273764
				CHANNELS 3 Xrotation Zrotation Yrotation 
				JOINT head
				{
					OFFSET 0.000000 3.148285 0.000000
					CHANNELS 3 Xrotation Zrotation Yrotation 
					End Site
					{
						OFFSET 0.000000 3.148289 0.000000
					}
				}
			}
			JOINT lCollar
			{
				OFFSET 3.422053 6.707223 -0.821293
				CHANNELS 3 Yrotation Zrotation Xrotation 
				JOINT lShldr
				{
					OFFSET 3.285171 0.000000 0.000000
					CHANNELS 3 Zrotation Yrotation Xrotation 
					JOINT lForeArm
					{
						OFFSET 10.129278 0.000000 0.000000
						CHANNELS 3 Yrotation Zrotation Xrotation 
						JOINT lHand
						{
							OFFSET 8.486692 0.000000 0.000000
							CHANNELS 3 Zrotation Yrotation Xrotation 
							End Site
							{
								OFFSET 4.106464 0.000000 0.000000
							}
						}
					}
				}
			}
			JOINT rCollar
			{
				OFFSET -3.558935 6.707223 -0.821293
				CHANNELS 3 Yrotation Zrotation Xrotation 
				JOINT rShldr
				{
					OFFSET -3.148289 0.000000 0.000000
					CHANNELS 3 Zrotation Yrotation Xrotation 
					JOINT rForeArm
					{
						OFFSET -10.266159 0.000000 0.000000
						CHANNELS 3 Yrotation Zrotation Xrotation 
						JOINT rHand
						{
							OFFSET -8.349810 0.000000 0.000000
							CHANNELS 3 Zrotation Yrotation Xrotation 
							End Site
							{
								OFFSET -4.106464 0.000000 0.000000
							}
						}
					}
				}
			}
		}
	}
	JOINT lThigh
	{
		OFFSET 5.338403 -1.642589 1.368821
		CHANNELS 3 Xrotation Zrotation Yrotation 
		JOINT lShin
		{
			OFFSET -2.053232 -20.121670 0.000000
			CHANNELS 3 Xrotation Zrotation Yrotation 
			JOINT lFoot
			{
				OFFSET 0.000000 -19.300380 -1.231939
				CHANNELS 3 Xrotation Yrotation Zrotation 
				End Site
				{
					OFFSET 0.000000 -2.463878 4.653993
				}
			}
		}
	}
	JOINT rThigh
	{
		OFFSET -5.338403 -1.642589 1.368821
		CHANNELS 3 Xrotation Zrotation Yrotation 
		JOINT rShin
		{
			OFFSET 2.053232 -20.121670 0.000000
			CHANNELS 3 Xrotation Zrotation Yrotation 
			JOINT rFoot
			{
				OFFSET 0.000000 -19.300380 -1.231939
				CHANNELS 3 Xrotation Yrotation Zrotation 
				End Site
				{
					OFFSET 0.000000 -2.463878 4.653993
				}
			}
		}
	}
}
MOTION
Frames: 6
Frame Time: 0.099977
0.000000 43.528500 0.000000 0.000000 0.000000 0.000000 0.000000 0.000000 0.000000 0.000000 0.000000 0.000000 0.000000 0.000000 0.000000 0.000000 0.000000 0.000000 0.000000 0.000000 0.000000 0.000000 0.000000 0.000000 0.000000 0.000000 0.000000 0.000000 0.000000 0.000000 0.000000 0.000000 0.000000 0.000000 0.000000 0.000000 0.000000 0.000000 0.000000 0.000000 0.000000 0.000000 0.000000 0.000000 0.000000 0.000000 0.000000 0.000000 0.000000 0.000000 0.000000 0.000000 0.000000 0.000000 0.000000 0.000000 0.000000 0.000000 0.000000 0.000000 
-9.170424 43.309231 -29.457668 0.000000 0.000000 -66.008514 -4.785465 -0.849616 -3.361999 1.113127 9.825180 -6.245159 12.080052 -5.088054 14.615285 -3.401114 3.729158 13.875203 1.878187 -17.981026 -0.919208 -39.710041 -1.595183 -8.444905 -21.290062 -24.923859 35.190292 1.185122 -3.445094 -6.482223 5.273958 20.963707 13.808728 35.842316 5.280308 49.855606 20.811752 -7.065783 -7.288280 2.832145 -4.451272 -34.107742 16.562300 13.648782 1.609687 -2.429006 -5.469733 0.895225 27.339533 50.660320 -34.792316 3.946829 -9.190230 -13.629070 -1.260738 5.142560 -0.828563 0.927489 9.772681 -11.041879 
-9.035485 43.354980 -29.274208 0.000000 0.000000 -66.008514 -4.786612 -0.854920 -2.681976 1.142567 9.446170 -5.472943 12.461642 -5.087827 14.599248 -3.058271 3.707974 13.855005 1.878187 -17.981028 -0.919208 -40.143646 -1.582663 -8.436022 -21.290064 -24.923861 35.190292 1.185122 -3.445094 -6.482223 5.474614 21.253271 13.730256 35.842316 5.280308 49.855606 20.811752 -7.065783 -7.288281 2.832145 -4.451272 -34.107742 16.474226 13.321636 1.598957 -2.429006 -5.469733 0.895225 27.153986 50.735279 -34.416862 3.876130 -9.505332 -13.628502 -1.260738 5.142560 -0.828563 1.618792 9.748157 -10.822206 
-8.900547 43.400726 -29.090750 0.000000 0.000000 -66.008514 -4.787823 -0.860213 -2.001688 1.166812 9.066570 -4.701284 12.843390 -5.087494 14.583209 -2.715314 3.686905 13.834676 1.878187 -17.981026 -0.919208 -40.577297 -1.570073 -8.427225 -21.290062 -24.923859 35.190292 1.185122 -3.445094 -6.482224 5.676114 21.542606 13.650529 35.842316 5.280308 49.855606 20.811754 -7.065783 -7.288280 2.832145 -4.451272 -34.107746 16.386316 12.994436 1.588755 -2.429006 -5.469733 0.895225 26.967352 50.809456 -34.040394 3.805356 -9.820459 -13.627538 -1.260738 5.142560 -0.828563 2.310472 9.726237 -10.602157 
-8.765610 43.446476 -28.907290 0.000000 0.000000 -66.008514 -4.789095 -0.865492 -1.321182 1.185867 8.686489 -3.930196 13.225283 -5.087054 14.567164 -2.372248 3.665952 13.814213 1.878187 -17.981024 -0.919208 -41.011009 -1.557416 -8.418528 -21.290060 -24.923857 35.190289 1.185122 -3.445094 -6.482222 5.878467 21.831699 13.569541 35.842312 5.280307 49.855602 20.811752 -7.065783 -7.288280 2.832144 -4.451271 -34.107742 16.298578 12.667201 1.579081 -2.429006 -5.469733 0.895224 26.779640 50.882862 -33.662926 3.734504 -10.135609 -13.626180 -1.260738 5.142559 -0.828563 3.002465 9.706929 -10.381781 
-8.630672 43.492226 -28.723831 0.000000 0.000000 -66.008514 -4.790431 -0.870757 -0.640508 1.199737 8.306042 -3.159698 13.607321 -5.086509 14.551124 -2.029079 3.645114 13.793616 1.878187 -17.981026 -0.919208 -41.444767 -1.544693 -8.409925 -21.290060 -24.923857 35.190289 1.185122 -3.445094 -6.482223 6.081687 22.120544 13.487282 35.842316 5.280310 49.855602 20.811752 -7.065783 -7.288280 2.832145 -4.451272 -34.107742 16.211004 12.339929 1.569932 -2.429006 -5.469733 0.895225 26.590864 50.955479 -33.284470 3.663569 -10.450772 -13.624421 -1.260738 5.142560 -0.828563 3.694705 9.690242 -10.161128 
